<svg id="visual" viewBox="0 0 1000 3800" width="1000" height="3800" xmlns="http://www.w3.org/2000/svg" xmlns:xlink="http://www.w3.org/1999/xlink" version="1.1"><path d="M0 153L23.8 159.3C47.7 165.7 95.3 178.3 143 184.7C190.7 191 238.3 191 286 184.7C333.7 178.3 381.3 165.7 428.8 159.3C476.3 153 523.7 153 571.2 159.3C618.7 165.7 666.3 178.3 714 184.7C761.7 191 809.3 191 857 184.7C904.7 178.3 952.3 165.7 976.2 159.3L1000 153L1000 0L976.2 0C952.3 0 904.7 0 857 0C809.3 0 761.7 0 714 0C666.3 0 618.7 0 571.2 0C523.7 0 476.3 0 428.8 0C381.3 0 333.7 0 286 0C238.3 0 190.7 0 143 0C95.3 0 47.7 0 23.8 0L0 0Z" fill="#272727"></path><path d="M0 495L23.8 488.7C47.7 482.3 95.3 469.7 143 469.7C190.7 469.7 238.3 482.3 286 488.7C333.7 495 381.3 495 428.8 488.7C476.3 482.3 523.7 469.7 571.2 469.7C618.7 469.7 666.3 482.3 714 488.7C761.7 495 809.3 495 857 488.7C904.7 482.3 952.3 469.7 976.2 463.3L1000 457L1000 151L976.2 157.3C952.3 163.7 904.7 176.3 857 182.7C809.3 189 761.7 189 714 182.7C666.3 176.3 618.7 163.7 571.2 157.3C523.7 151 476.3 151 428.8 157.3C381.3 163.7 333.7 176.3 286 182.7C238.3 189 190.7 189 143 182.7C95.3 176.3 47.7 163.7 23.8 157.3L0 151Z" fill="#232323"></path><path d="M0 685L23.8 672.3C47.7 659.7 95.3 634.3 143 628C190.7 621.7 238.3 634.3 286 647C333.7 659.7 381.3 672.3 428.8 678.7C476.3 685 523.7 685 571.2 691.3C618.7 697.7 666.3 710.3 714 710.3C761.7 710.3 809.3 697.7 857 691.3C904.7 685 952.3 685 976.2 685L1000 685L1000 455L976.2 461.3C952.3 467.7 904.7 480.3 857 486.7C809.3 493 761.7 493 714 486.7C666.3 480.3 618.7 467.7 571.2 467.7C523.7 467.7 476.3 480.3 428.8 486.7C381.3 493 333.7 493 286 486.7C238.3 480.3 190.7 467.7 143 467.7C95.3 467.7 47.7 480.3 23.8 486.7L0 493Z" fill="#202020"></path><path d="M0 913L23.8 900.3C47.7 887.7 95.3 862.3 143 849.7C190.7 837 238.3 837 286 849.7C333.7 862.3 381.3 887.7 428.8 900.3C476.3 913 523.7 913 571.2 919.3C618.7 925.7 666.3 938.3 714 938.3C761.7 938.3 809.3 925.7 857 913C904.7 900.3 952.3 887.7 976.2 881.3L1000 875L1000 683L976.2 683C952.3 683 904.7 683 857 689.3C809.3 695.7 761.7 708.3 714 708.3C666.3 708.3 618.7 695.7 571.2 689.3C523.7 683 476.3 683 428.8 676.7C381.3 670.3 333.7 657.7 286 645C238.3 632.3 190.7 619.7 143 626C95.3 632.3 47.7 657.7 23.8 670.3L0 683Z" fill="#1c1c1c"></path><path d="M0 1255L23.8 1255C47.7 1255 95.3 1255 143 1248.7C190.7 1242.3 238.3 1229.7 286 1242.3C333.7 1255 381.3 1293 428.8 1305.7C476.3 1318.3 523.7 1305.7 571.2 1299.3C618.7 1293 666.3 1293 714 1299.3C761.7 1305.7 809.3 1318.3 857 1318.3C904.7 1318.3 952.3 1305.7 976.2 1299.3L1000 1293L1000 873L976.2 879.3C952.3 885.7 904.7 898.3 857 911C809.3 923.7 761.7 936.3 714 936.3C666.3 936.3 618.7 923.7 571.2 917.3C523.7 911 476.3 911 428.8 898.3C381.3 885.7 333.7 860.3 286 847.7C238.3 835 190.7 835 143 847.7C95.3 860.3 47.7 885.7 23.8 898.3L0 911Z" fill="#191919"></path><path d="M0 1521L23.8 1521C47.7 1521 95.3 1521 143 1514.7C190.7 1508.3 238.3 1495.7 286 1508.3C333.7 1521 381.3 1559 428.8 1565.3C476.3 1571.7 523.7 1546.3 571.2 1540C618.7 1533.7 666.3 1546.3 714 1559C761.7 1571.7 809.3 1584.3 857 1584.3C904.7 1584.3 952.3 1571.7 976.2 1565.3L1000 1559L1000 1291L976.2 1297.3C952.3 1303.7 904.7 1316.3 857 1316.3C809.3 1316.3 761.7 1303.7 714 1297.3C666.3 1291 618.7 1291 571.2 1297.3C523.7 1303.7 476.3 1316.3 428.8 1303.7C381.3 1291 333.7 1253 286 1240.3C238.3 1227.7 190.7 1240.3 143 1246.7C95.3 1253 47.7 1253 23.8 1253L0 1253Z" fill="#151515"></path><path d="M0 1749L23.8 1749C47.7 1749 95.3 1749 143 1742.7C190.7 1736.3 238.3 1723.7 286 1749C333.7 1774.3 381.3 1837.7 428.8 1856.7C476.3 1875.7 523.7 1850.3 571.2 1844C618.7 1837.7 666.3 1850.3 714 1856.7C761.7 1863 809.3 1863 857 1850.3C904.7 1837.7 952.3 1812.3 976.2 1799.7L1000 1787L1000 1557L976.2 1563.3C952.3 1569.7 904.7 1582.3 857 1582.3C809.3 1582.3 761.7 1569.7 714 1557C666.3 1544.3 618.7 1531.7 571.2 1538C523.7 1544.3 476.3 1569.7 428.8 1563.3C381.3 1557 333.7 1519 286 1506.3C238.3 1493.7 190.7 1506.3 143 1512.7C95.3 1519 47.7 1519 23.8 1519L0 1519Z" fill="#111111"></path><path d="M0 2547L23.8 2566C47.7 2585 95.3 2623 143 2642C190.7 2661 238.3 2661 286 2661C333.7 2661 381.3 2661 428.8 2667.3C476.3 2673.7 523.7 2686.3 571.2 2699C618.7 2711.7 666.3 2724.3 714 2699C761.7 2673.7 809.3 2610.3 857 2610.3C904.7 2610.3 952.3 2673.7 976.2 2705.3L1000 2737L1000 1785L976.2 1797.7C952.3 1810.3 904.7 1835.7 857 1848.3C809.3 1861 761.7 1861 714 1854.7C666.3 1848.3 618.7 1835.7 571.2 1842C523.7 1848.3 476.3 1873.7 428.8 1854.7C381.3 1835.7 333.7 1772.3 286 1747C238.3 1721.7 190.7 1734.3 143 1740.7C95.3 1747 47.7 1747 23.8 1747L0 1747Z" fill="#0c0c0c"></path><path d="M0 3041L23.8 3060C47.7 3079 95.3 3117 143 3129.7C190.7 3142.3 238.3 3129.7 286 3117C333.7 3104.3 381.3 3091.7 428.8 3085.3C476.3 3079 523.7 3079 571.2 3110.7C618.7 3142.3 666.3 3205.7 714 3205.7C761.7 3205.7 809.3 3142.3 857 3129.7C904.7 3117 952.3 3155 976.2 3174L1000 3193L1000 2735L976.2 2703.3C952.3 2671.7 904.7 2608.3 857 2608.3C809.3 2608.3 761.7 2671.7 714 2697C666.3 2722.3 618.7 2709.7 571.2 2697C523.7 2684.3 476.3 2671.7 428.8 2665.3C381.3 2659 333.7 2659 286 2659C238.3 2659 190.7 2659 143 2640C95.3 2621 47.7 2583 23.8 2564L0 2545Z" fill="#060606"></path><path d="M0 3801L23.8 3801C47.7 3801 95.3 3801 143 3801C190.7 3801 238.3 3801 286 3801C333.7 3801 381.3 3801 428.8 3801C476.3 3801 523.7 3801 571.2 3801C618.7 3801 666.3 3801 714 3801C761.7 3801 809.3 3801 857 3801C904.7 3801 952.3 3801 976.2 3801L1000 3801L1000 3191L976.2 3172C952.3 3153 904.7 3115 857 3127.7C809.3 3140.3 761.7 3203.7 714 3203.7C666.3 3203.7 618.7 3140.3 571.2 3108.7C523.7 3077 476.3 3077 428.8 3083.3C381.3 3089.7 333.7 3102.3 286 3115C238.3 3127.7 190.7 3140.3 143 3127.7C95.3 3115 47.7 3077 23.8 3058L0 3039Z" fill="#000000"></path></svg>