<svg id="visual" viewBox="0 0 1000 3800" width="1000" height="3800" xmlns="http://www.w3.org/2000/svg" xmlns:xlink="http://www.w3.org/1999/xlink" version="1.1"><rect width="1000" height="3800" fill="#000"></rect><g><g transform="translate(800 954)"><path d="M209.8 -250.8C259 -208.8 277 -130.4 285.5 -54.4C293.9 21.5 293 95.1 265.2 162.5C237.4 229.9 182.9 291.2 115.1 315.7C47.3 340.2 -33.8 327.8 -107.5 299.2C-181.2 270.7 -247.7 226 -283.8 163.7C-320 101.4 -325.9 21.5 -309.3 -51.4C-292.7 -124.3 -253.8 -190.1 -198.5 -231C-143.2 -271.9 -71.6 -287.9 4.4 -293.1C80.3 -298.4 160.7 -292.8 209.8 -250.8Z" fill="#19191d"></path></g><g transform="translate(138 1944)"><path d="M114.8 -142.8C147.7 -109.1 172.6 -72 185.2 -28.6C197.7 14.9 197.8 64.6 175.6 99.9C153.4 135.2 108.9 156.1 65 167.2C21 178.3 -22.4 179.7 -61.3 166.4C-100.2 153.1 -134.5 125.3 -154.5 89.7C-174.5 54.1 -180.2 10.6 -172.6 -30.1C-165.1 -70.9 -144.3 -109 -113.3 -143.1C-82.3 -177.1 -41.2 -207 -0.1 -206.9C40.9 -206.7 81.8 -176.5 114.8 -142.8Z" fill="#19191d"></path></g><g transform="translate(948 2063)"><path d="M153.3 -182.2C200.8 -142.8 242.9 -96.5 253.9 -43.4C264.8 9.7 244.5 69.6 213.9 124.4C183.4 179.3 142.4 229 91.8 243.7C41.3 258.4 -19 238 -75.5 214.4C-132 190.8 -184.9 164 -219.9 119.3C-254.9 74.5 -272 11.8 -259.1 -43C-246.2 -97.7 -203.3 -144.4 -155.1 -183.7C-106.9 -222.9 -53.5 -254.7 -0.3 -254.4C52.9 -254 105.8 -221.6 153.3 -182.2Z" fill="#19191d"></path></g><g transform="translate(893 3579)"><path d="M101.6 -126.8C129.1 -98 147.2 -63.6 153.9 -26.9C160.6 9.7 156 48.6 139.3 83.1C122.6 117.6 93.7 147.8 57.3 163.7C21 179.6 -22.8 181.3 -64.7 169.6C-106.6 157.9 -146.7 132.9 -162.7 97.6C-178.7 62.3 -170.7 16.8 -160 -25.4C-149.2 -67.6 -135.6 -106.5 -108.5 -135.4C-81.4 -164.3 -40.7 -183.2 -1.8 -181.1C37 -178.9 74.1 -155.7 101.6 -126.8Z" fill="#19191d"></path></g><g transform="translate(183 162)"><path d="M148.6 -185C183 -148.3 194.6 -92.3 205.4 -35.5C216.3 21.2 226.3 78.8 207.5 127.8C188.7 176.7 141.2 216.9 87 234.8C32.8 252.8 -28 248.4 -80.7 227C-133.4 205.5 -178 167 -198.5 120.1C-219 73.2 -215.4 17.9 -200.5 -29.9C-185.6 -77.8 -159.4 -118.3 -124.1 -154.9C-88.8 -191.4 -44.4 -224 6.4 -231.6C57.1 -239.2 114.2 -221.7 148.6 -185Z" fill="#19191d"></path></g><g transform="translate(354 2861)"><path d="M200.5 -226.7C256.7 -191.8 296.8 -125.6 308.4 -55.1C319.9 15.4 302.8 90.2 263 145.1C223.3 200 160.8 235 96.9 252C33.1 269 -32 268 -93.4 249C-154.9 230 -212.5 193 -250.7 138.9C-289 84.8 -307.7 13.6 -293.5 -49.2C-279.4 -112 -232.3 -166.4 -177.9 -201.6C-123.5 -236.8 -61.8 -252.9 5.2 -259.1C72.2 -265.3 144.3 -261.6 200.5 -226.7Z" fill="#19191d"></path></g><g transform="translate(117 3715)"><path d="M132.8 -169.8C167.3 -129.3 187.2 -82.9 195.2 -34.8C203.3 13.4 199.6 63.2 178.5 106.1C157.4 149 118.9 184.9 72.5 203.6C26.2 222.3 -27.9 224 -72.5 205.2C-117.1 186.4 -152.1 147.2 -173.2 103.5C-194.4 59.7 -201.7 11.4 -196.4 -37.4C-191.1 -86.3 -173.2 -135.7 -138.4 -176.1C-103.6 -216.4 -51.8 -247.7 -1.3 -246.2C49.2 -244.6 98.3 -210.2 132.8 -169.8Z" fill="#19191d"></path></g><g transform="translate(963 47)"><path d="M147.5 -177C189.6 -140.4 221.2 -92.5 228.5 -41.7C235.9 9.2 219 62.9 192.2 112.7C165.5 162.4 129 208.2 79.5 232.1C30.1 256 -32.3 258 -82.8 235.9C-133.2 213.8 -171.9 167.7 -191.6 118.1C-211.3 68.5 -212 15.5 -202.7 -35.4C-193.3 -86.3 -173.8 -135.1 -138.4 -173C-102.9 -210.8 -51.5 -237.6 0.6 -238.3C52.7 -239.1 105.3 -213.7 147.5 -177Z" fill="#19191d"></path></g></g></svg>